<?xml version="1.0" encoding="UTF-8" standalone="no"?>
<svg
   version="1.0"
   width="1024.000000pt"
   height="1024.000000pt"
   viewBox="0 0 1024.000000 1024.000000"
   preserveAspectRatio="xMidYMid meet"
   id="svg1"
   sodipodi:docname="person-generic.svg"
   inkscape:version="1.4.2 (ebf0e940d0, 2025-05-08)"
   xmlns:inkscape="http://www.inkscape.org/namespaces/inkscape"
   xmlns:sodipodi="http://sodipodi.sourceforge.net/DTD/sodipodi-0.dtd"
   xmlns="http://www.w3.org/2000/svg"
   xmlns:svg="http://www.w3.org/2000/svg">
  <defs
     id="defs1" />
  <sodipodi:namedview
     id="namedview1"
     pagecolor="#ffffff"
     bordercolor="#666666"
     borderopacity="1.0"
     inkscape:showpageshadow="2"
     inkscape:pageopacity="0.0"
     inkscape:pagecheckerboard="0"
     inkscape:deskcolor="#d1d1d1"
     inkscape:document-units="pt"
     inkscape:zoom="0.25634766"
     inkscape:cx="682.66667"
     inkscape:cy="682.66667"
     inkscape:window-width="944"
     inkscape:window-height="514"
     inkscape:window-x="2883"
     inkscape:window-y="533"
     inkscape:window-maximized="0"
     inkscape:current-layer="svg1" />
  <g
     transform="translate(0.000000,1024.000000) scale(0.100000,-0.100000)"
     fill="currentColor"
     stroke="none"
     id="g1"
    >
    <path
       d="M4900 9009 c-630 -71 -1180 -497 -1420 -1100 -76 -192 -116 -357 -140 -577 -16 -144 -8 -518 15 -657 81 -511 299 -951 653 -1317 66 -68 101 -111 96 -119 -28 -46 -249 -311 -266 -320 -12 -7 -162 -58 -333 -114 -627 -207 -965 -365 -1239 -579 -287 -224 -449 -527 -536 -1002 -56 -301 -84 -705 -78 -1104 3 -220 4 -238 26 -285 25 -54 70 -106 117 -135 165 -101 1081 -295 1695 -360 1051 -110 1923 -116 2965 -20 869 81 1815 269 2000 398 54 38 101 110 116 180 16 76 6 698 -16 957 -33 402 -107 711 -230 955 -132 263 -366 477 -728 665 -272 142 -514 234 -1037 396 -95 30 -175 60 -189 73 -20 18 -213 268 -235 304 -5 9 28 50 101 125 536 554 777 1374 632 2150 -41 222 -155 511 -272 690 -263 404 -716 702 -1192 783 -111 19 -390 26 -505 13z m508 -268 c542 -117 969 -501 1146 -1031 138 -414 125 -921 -35 -1395 -186 -550 -570 -975 -1029 -1139 -490 -176 -1052 26 -1442 520 -428 541 -583 1359 -378 1998 162 505 573 901 1072 1032 139 36 210 43 393 39 130 -2 206 -9 273 -24z m-842 -3751 c197 -94 354 -131 559 -131 153 0 255 15 383 58 77 25 260 113 361 172 30 18 57 29 61 24 4 -4 58 -81 119 -171 l113 -162 -26 -44 c-170 -290 -461 -497 -791 -562 -120 -23 -350 -23 -460 0 -161 35 -320 101 -446 186 -124 85 -291 265 -353 381 l-19 36 127 171 128 170 71 -40 c40 -22 117 -61 173 -88z m2126 -414 c588 -201 884 -336 1098 -501 388 -299 525 -746 546 -1781 5 -287 4 -311 -13 -344 -34 -64 -83 -85 -358 -154 -169 -42 -405 -89 -412 -83 -2 3 -7 324 -11 713 l-7 709 -48 -290 c-56 -333 -173 -931 -214 -1085 l-28 -105 -120 -17 c-1117 -163 -2278 -193 -3385 -88 -233 22 -721 89 -733 100 -12 11 -115 421 -166 655 -48 226 -106 539 -130 708 l-17 122 -8 -715 c-4 -393 -8 -716 -10 -717 -5 -5 -346 71 -525 117 -169 44 -205 60 -240 111 l-23 34 5 340 c6 357 15 490 48 720 82 572 236 858 589 1094 132 89 358 203 551 280 130 51 720 251 742 251 7 0 51 -52 97 -116 315 -432 780 -655 1301 -622 338 21 663 166 911 406 93 90 278 317 278 341 0 6 2 11 4 11 2 0 127 -42 278 -94z"
       id="path1"
       />
  </g>
</svg>
